<svg xmlns="http://www.w3.org/2000/svg" xmlns:xlink="http://www.w3.org/1999/xlink" width="77" height="100" viewBox="0 0 77 100">
  <defs>
    <clipPath id="clip-Co_Ordinators">
      <rect width="77" height="100"/>
    </clipPath>
  </defs>
  <g id="Co_Ordinators" data-name="Co Ordinators" clip-path="url(#clip-Co_Ordinators)">
    <g id="Group_7465" data-name="Group 7465" transform="translate(16975.188 -7913.003)">
      <g id="Group_7056" data-name="Group 7056" transform="translate(-16975.188 7913.003)">
        <g id="Group_7065" data-name="Group 7065" transform="translate(0 0)">
          <path id="Path_7713" data-name="Path 7713" d="M122.437,1228.957v-92.58a5.568,5.568,0,0,1,3.092-3.673h51.606a8.066,8.066,0,0,1,2,1.494q9.273,9.306,18.578,18.581a4.9,4.9,0,0,1,1.538,3.7q-.018,35.65,0,71.3a3.226,3.226,0,0,1-.925,2.352,4.825,4.825,0,0,1-3.663,1.628q-33.621-.037-67.241.014A5.3,5.3,0,0,1,122.437,1228.957Zm38.291-29.83q16.765,0,33.53,0c1.337,0,1.366-.03,1.369-1.35.005-2.448,0-4.9,0-7.344q0-16.234.019-32.467c0-.906-.252-1.292-1.2-1.251-1.318.057-2.641.013-3.961.013q-6.716,0-13.431,0a1.829,1.829,0,0,1-1.9-1.881q0-8.648,0-17.3c0-1.264-.038-1.305-1.3-1.305H127.761c-1.776,0-1.784.006-1.784,1.771q0,29.811,0,59.62c0,1.49.007,1.493,1.511,1.493Zm.113,3.617q-16.763,0-33.527,0c-1.29,0-1.322.03-1.322,1.283q0,11.4,0,22.8c0,1.212.062,1.273,1.242,1.274l67.054,0c1.267,0,1.326-.056,1.326-1.293q0-11.352,0-22.705c0-1.34-.022-1.365-1.343-1.365Q177.556,1202.742,160.841,1202.744Zm31.757-49.659a3.444,3.444,0,0,0-.3-.471q-6.337-6.355-12.682-12.7c-.152-.152-.311-.417-.549-.3-.323.152-.205.511-.206.783-.008,3.8.017,7.592-.02,11.387-.01.989.441,1.324,1.332,1.318q1.832-.012,3.664-.01C186.7,1153.084,189.551,1153.085,192.6,1153.085Z" transform="translate(-122.437 -1132.704)" fill="#fff" fill-rule="evenodd"/>
          <path id="Path_7718" data-name="Path 7718" d="M254.68,1312.924c0-2.118,0-4.163,0-6.208,0-1.416,0-2.833-.02-4.249-.01-.579.255-.783.806-.829,2.155-.182,2.273-.076,2.271,2.116q-.008,7.006,0,14.011c0,1.306-.055,1.263-1.359,1.377a2.354,2.354,0,0,1-2.559-1.5c-1.623-3.038-3.379-6.006-5.085-9-.153-.268-.326-.526-.637-1.023,0,3.613-.026,6.953.017,10.29.012.923-.289,1.241-1.215,1.226-1.842-.03-1.845.013-1.845-1.852q0-7.15,0-14.3c0-1.254.07-1.247,1.3-1.351a2.29,2.29,0,0,1,2.53,1.386c1.631,3.071,3.408,6.063,5.135,9.083A1.569,1.569,0,0,0,254.68,1312.924Z" transform="translate(-190.802 -1226.858)" fill="#fff" fill-rule="evenodd"/>
          <path id="Path_7719" data-name="Path 7719" d="M203.848,1310.018a10.242,10.242,0,0,1,1.313-5.465,6.605,6.605,0,0,1,6.4-3.346,6.391,6.391,0,0,1,5.813,3.976,11.821,11.821,0,0,1,.009,9.832,6.419,6.419,0,0,1-6.292,4,6.546,6.546,0,0,1-6.163-3.763A11.209,11.209,0,0,1,203.848,1310.018Zm3.075-.407a10.221,10.221,0,0,0,.827,4.681,3.524,3.524,0,0,0,3.266,2.169,3.458,3.458,0,0,0,3.454-2.184,10.161,10.161,0,0,0-.052-8.431,3.33,3.33,0,0,0-3.406-2.064,3.517,3.517,0,0,0-3.31,2.243A8.612,8.612,0,0,0,206.923,1309.611Z" transform="translate(-167.831 -1226.644)" fill="#fff" fill-rule="evenodd"/>
          <path id="Path_7720" data-name="Path 7720" d="M181.255,1301.21a9.256,9.256,0,0,1,3.031.482c.614.2.847.542.474,1.152a8.5,8.5,0,0,0-.451.853c-.21.452-.485.634-.991.389a4.547,4.547,0,0,0-2.564-.232,2.287,2.287,0,0,0-2,1.6,2.054,2.054,0,0,0,.805,2.39,10.329,10.329,0,0,0,1.828,1.069c.716.364,1.454.7,2.132,1.123a4.391,4.391,0,0,1,2.273,4.369,4.65,4.65,0,0,1-3,4.053,7.973,7.973,0,0,1-6.289-.182,1.6,1.6,0,0,1-.393-2.44c.3-.313.6-.076.888.02a9.05,9.05,0,0,0,3.585.628,2.242,2.242,0,0,0,2.256-1.622,2.1,2.1,0,0,0-.869-2.535,9.683,9.683,0,0,0-1.726-1.054c-.708-.381-1.431-.739-2.1-1.177-2.106-1.372-2.834-3.144-2.247-5.348a5.02,5.02,0,0,1,4.59-3.538C180.739,1301.192,181,1301.21,181.255,1301.21Z" transform="translate(-152.132 -1226.65)" fill="#fff" fill-rule="evenodd"/>
          <path id="Path_7721" data-name="Path 7721" d="M153.808,1308.357c0,1.994,0,3.988,0,5.982a4.026,4.026,0,0,1-3.371,4.3,9.971,9.971,0,0,1-6.732-.974c-.519-.245-.586-.571-.3-1.084.75-1.355.74-1.378,2.21-.862a7.032,7.032,0,0,0,3.318.4,1.7,1.7,0,0,0,1.711-1.735c.239-2.469.07-4.945.093-7.419.015-1.671.028-3.341,0-5.011-.011-.708.285-.922.97-.966,2.045-.133,2.094-.124,2.1,1.868.009,1.833,0,3.667,0,5.5Z" transform="translate(-134.036 -1226.503)" fill="#fff" fill-rule="evenodd"/>
        </g>
      </g>
    </g>
  </g>
</svg>
