<svg xmlns="http://www.w3.org/2000/svg" xmlns:xlink="http://www.w3.org/1999/xlink" width="81" height="100" viewBox="0 0 81 100">
  <defs>
    <clipPath id="clip-Delete">
      <rect width="81" height="100"/>
    </clipPath>
  </defs>
  <g id="Delete" clip-path="url(#clip-Delete)">
    <rect width="81" height="100" fill="#fff"/>
    <g id="Group_5875" data-name="Group 5875">
      <g id="delete-2" data-name="delete" transform="translate(0 0)">
        <path id="Path_7637" data-name="Path 7637" d="M224.734,154.7a2.336,2.336,0,0,0-2.336,2.336v44.143a2.336,2.336,0,0,0,4.671,0V157.039A2.336,2.336,0,0,0,224.734,154.7Zm0,0" transform="translate(-170.454 -118.57)" fill="#5d5d5d"/>
        <path id="Path_7638" data-name="Path 7638" d="M106.734,154.7a2.336,2.336,0,0,0-2.336,2.336v44.143a2.336,2.336,0,0,0,4.671,0V157.039A2.335,2.335,0,0,0,106.734,154.7Zm0,0" transform="translate(-80.014 -118.57)" fill="#5d5d5d"/>
        <path id="Path_7639" data-name="Path 7639" d="M6.63,29.689V87.234a12.886,12.886,0,0,0,3.426,8.887A11.5,11.5,0,0,0,18.4,99.73H62.592a11.5,11.5,0,0,0,8.345-3.608,12.886,12.886,0,0,0,3.426-8.887V29.689a8.922,8.922,0,0,0-2.289-17.545H60.116V9.225A9.174,9.174,0,0,0,50.866,0H30.127a9.174,9.174,0,0,0-9.249,9.226v2.92H8.919A8.922,8.922,0,0,0,6.63,29.689ZM62.592,95.058H18.4c-3.993,0-7.1-3.43-7.1-7.824V29.895h58.39V87.234c0,4.394-3.107,7.824-7.1,7.824ZM25.549,9.225A4.5,4.5,0,0,1,30.127,4.67h20.74a4.5,4.5,0,0,1,4.578,4.554v2.92h-29.9ZM8.919,16.815H72.074a4.2,4.2,0,1,1,0,8.408H8.919a4.2,4.2,0,1,1,0-8.408Zm0,0" transform="translate(0.003 0.002)" fill="#5d5d5d"/>
        <path id="Path_7640" data-name="Path 7640" d="M165.734,154.7a2.335,2.335,0,0,0-2.336,2.336v44.143a2.336,2.336,0,0,0,4.671,0V157.039A2.335,2.335,0,0,0,165.734,154.7Zm0,0" transform="translate(-125.234 -118.57)" fill="#5d5d5d"/>
      </g>
    </g>
  </g>
</svg>
