<svg xmlns="http://www.w3.org/2000/svg" xmlns:xlink="http://www.w3.org/1999/xlink" width="100" height="95" viewBox="0 0 100 95">
  <defs>
    <clipPath id="clip-Entities">
      <rect width="100" height="95"/>
    </clipPath>
  </defs>
  <g id="Entities" clip-path="url(#clip-Entities)">
    <g id="Group_7464" data-name="Group 7464" transform="translate(0 0)">
      <path id="Path_7710" data-name="Path 7710" d="M-518.129,606.661c4.2,0,8.4-.044,12.6.021,1.736.026,2.5-.6,2.431-2.4-.094-2.462-.062-4.929-.013-7.394.031-1.518-.649-2.155-2.134-2.139-1.733.019-3.477.071-5.2-.082-5.079-.45-8.147-3.358-8.317-8.449-.225-6.747-.228-13.514,0-20.26.176-5.195,3.342-8.29,8.576-8.452q9.986-.31,19.988,0c5.321.169,8.442,3.369,8.594,8.736q.281,9.85,0,19.715c-.158,5.351-3.3,8.335-8.63,8.751-.273.021-.547.019-.821.028-6.215.191-6.245.191-6.207,6.553.036,5.988-.782,5.341,5.437,5.365,7.12.027,14.241-.021,21.361.016,6.277.033,9.355,3.171,9.394,9.479.013,2.1.056,4.2-.008,6.3-.049,1.6.574,2.229,2.224,2.342,6.63.454,8.156,2.178,8.158,8.9,0,3.651.033,7.3-.013,10.955-.052,4.073-2.2,6.7-6.22,6.924a119.361,119.361,0,0,1-13.953-.021c-4.167-.257-6.372-2.916-6.428-7.08-.054-4.016-.038-8.034-.008-12.05.036-4.908,2.435-7.532,7.336-7.589,2.422-.028,3.279-.822,3.08-3.2-.167-1.995-.045-4.014-.046-6.023a2.4,2.4,0,0,0-2.683-2.726c-8.49-.015-16.979.005-25.469-.034-1.7-.007-2.263.793-2.177,2.365.06,1.092-.016,2.191.013,3.286.047,1.817-.37,3.861.325,5.393.818,1.8,3.147.617,4.769,1.071,3.233.9,5.2,3.052,5.263,6.46q.129,6.844,0,13.692c-.069,3.38-2.043,5.828-5.382,6.25a62.594,62.594,0,0,1-15.826-.005c-3.375-.434-5.282-2.828-5.357-6.252-.094-4.288-.056-8.58-.025-12.871.035-4.791,2.371-7.353,7.18-7.4,2.5-.025,3.475-.768,3.245-3.308a52.054,52.054,0,0,1-.026-6.295c.047-1.559-.455-2.388-2.164-2.381-8.49.038-16.98.019-25.47.031a2.4,2.4,0,0,0-2.7,2.705c0,2.374.033,4.748-.016,7.121-.032,1.573.785,1.964,2.205,2.07,6.38.48,8.18,2.439,8.187,8.732,0,3.56.038,7.121-.013,10.681-.065,4.5-2.317,7.167-6.718,7.405a129.687,129.687,0,0,1-13.412.009c-4.226-.211-6.425-2.745-6.471-6.957s-.031-8.4-.006-12.6c.027-4.536,2.221-7.077,6.755-7.191,2.68-.069,3.534-1.022,3.373-3.575a38.444,38.444,0,0,1,.159-6.559c.566-5.182,3.685-7.961,8.945-8.047,4.106-.068,8.216-.014,12.324-.014Zm17.75-18.113c3.277,0,6.556-.005,9.834,0,1.743,0,2.793-.755,2.8-2.587q.023-9.833.008-19.667a2.386,2.386,0,0,0-2.718-2.668q-9.7,0-19.395-.006c-1.935,0-2.819.949-2.815,2.861q.019,9.56-.007,19.121c-.008,2.068.967,2.984,3.008,2.96C-506.571,588.527-503.475,588.553-500.379,588.548Zm-.068,56.986h.822c6.9,0,6.9,0,6.9-6.995,0-7.576,0-7.576-7.641-7.576-7.311,0-7.311,0-7.311,7.356C-507.674,645.532-507.674,645.532-500.446,645.534Zm-43.4-7.529c0,7.529,0,7.529,7.64,7.529,6.983,0,6.983,0,6.983-6.892,0-7.679,0-7.679-7.578-7.679C-543.848,630.963-543.848,630.963-543.851,638.005Zm87.3.282c0-7.324,0-7.324-7.309-7.324s-7.318,0-7.318,7.4c0,7.175,0,7.175,7.25,7.175C-456.544,645.534-456.544,645.534-456.547,638.287Z" transform="translate(549.71 -557.353)" fill="#fff" stroke="#3a3a3a" stroke-width="0.6" fill-rule="evenodd"/>
    </g>
  </g>
</svg>
