<svg xmlns="http://www.w3.org/2000/svg" xmlns:xlink="http://www.w3.org/1999/xlink" width="100" height="100" viewBox="0 0 100 100">
  <defs>
    <clipPath id="clip-Home">
      <rect width="100" height="100"/>
    </clipPath>
  </defs>
  <g id="Home" clip-path="url(#clip-Home)">
    <path id="Path_7733" data-name="Path 7733" d="M97.886,46.881,90.835,39.83l-38.8-38.8a3.527,3.527,0,0,0-4.987,0l-38.8,38.8L1.2,46.885a3.527,3.527,0,0,0,4.987,4.987l1.03-1.037V95.227a3.527,3.527,0,0,0,3.527,3.527h77.6a3.527,3.527,0,0,0,3.527-3.527V50.835L92.9,51.868a3.527,3.527,0,0,0,4.987-4.987ZM60.122,91.7H38.959V63.483H60.122Zm24.689,0H67.176V59.956a3.527,3.527,0,0,0-3.527-3.527H35.432A3.527,3.527,0,0,0,31.9,59.956V91.7H14.269V43.781L49.54,8.51,84.811,43.781Z" transform="translate(-0.208 1.603)" fill="#ee4d6d"/>
  </g>
</svg>
