<svg xmlns="http://www.w3.org/2000/svg" xmlns:xlink="http://www.w3.org/1999/xlink" width="96" height="100" viewBox="0 0 96 100">
  <defs>
    <clipPath id="clip-Logout">
      <rect width="96" height="100"/>
    </clipPath>
  </defs>
  <g id="Logout" clip-path="url(#clip-Logout)">
    <g id="Group_5756" data-name="Group 5756" transform="translate(1 0)">
      <path id="Path_6081" data-name="Path 6081" d="M1387.556,1324.326a46.626,46.626,0,0,1,13.391-32.984,8.383,8.383,0,0,1,14.526,4.506,7.652,7.652,0,0,1-1.969,6.51,35.988,35.988,0,0,0-6.4,9.044,30.223,30.223,0,0,0,23.273,42.81,29.811,29.811,0,0,0,32.772-20.228c3.633-11.048,1.481-21.2-6.2-30.04-1.364-1.573-2.787-3.059-3.25-5.187a8.363,8.363,0,0,1,14.063-7.751,45.855,45.855,0,0,1,13.245,26.561c1.836,13.409-1.391,25.536-9.844,36.108a47.051,47.051,0,0,1-64.419,8.482c-10.446-7.659-16.594-18.039-18.686-30.82A38.344,38.344,0,0,1,1387.556,1324.326Z" transform="translate(-1387.548 -1272.558)" fill="#fff" stroke="#3a3a3a" stroke-width="1" fill-rule="evenodd"/>
      <path id="Path_6082" data-name="Path 6082" d="M1551.94,1251.2q0-10.834,0-21.667c0-3.006.9-5.632,3.41-7.473a8.021,8.021,0,0,1,8.416-.944,7.653,7.653,0,0,1,4.859,6.78c.4,5.689.129,11.393.157,17.091.045,8.979.01,17.958.014,26.937a15.583,15.583,0,0,1-.349,3.952,8.317,8.317,0,0,1-16.375-1.377c-.338-4.482-.079-8.975-.138-13.463-.041-3.277-.008-6.557-.008-9.836Z" transform="translate(-1513.382 -1220.344)" fill="#fff" stroke="#3a3a3a" stroke-width="1" fill-rule="evenodd"/>
    </g>
  </g>
</svg>
