<svg xmlns="http://www.w3.org/2000/svg" xmlns:xlink="http://www.w3.org/1999/xlink" width="100" height="100" viewBox="0 0 100 100">
  <defs>
    <clipPath id="clip-Intents">
      <rect width="100" height="100"/>
    </clipPath>
  </defs>
  <g id="Intents" clip-path="url(#clip-Intents)">
    <g id="Group_7463" data-name="Group 7463" transform="translate(0)">
      <path id="Path_7723" data-name="Path 7723" d="M65.089,535.531H-6.949c-7.345,1.825-11.619,6.145-13.423,13.568v45.778c1.23,5.046,3.665,8.678,7.438,11.1a16.087,16.087,0,0,0,8.8,2.561q4.694.014,9.387.011l9.017,0,4,0c6.146,0,8.021,1.924,8.029,8.222l.006,3.774c.008,3.6.017,7.307-.014,10.965-.024,2.712.812,3.326,1.745,3.759a2.413,2.413,0,0,0,1.007.26c.932,0,2.033-.912,2.792-1.677l2.89-2.912c6.164-6.212,12.539-12.633,18.811-19.059a10.375,10.375,0,0,1,7.808-3.373c10.612-.043,17.21-6.771,17.221-17.56,0-3.883-.027-7.9-.054-11.45-.062-8.224-.126-16.7.145-25.065C78.977,544.531,74.036,537.654,65.089,535.531Zm7.957,55.909c-.015,7.054-4.021,11.436-10.456,11.436-.452,0-.92-.024-1.391-.067-4.818-.455-8.075.941-11.321,4.891a92.989,92.989,0,0,1-7.03,7.394c-1.049,1.023-2.049,2-3.025,3l-2.077,2.116L31.814,617.5l.007-5.234c.005-1.793.01-3.585-.01-5.374-.034-3.048-.912-3.933-3.916-3.947q-6.312-.031-12.624-.026l-12.5.005q-3.054,0-6.107-.005c-7.353-.01-11.58-4.233-11.593-11.585-.024-13.444-.024-26.508,0-38.83.014-7.181,4.306-11.471,11.478-11.476q32.561-.026,65.122,0c7.112.007,11.364,4.336,11.378,11.579C73.073,566.361,73.072,579.062,73.046,591.439Z" transform="translate(20.372 -535.531)" fill="#fff"/>
      <g id="Group_6490" data-name="Group 6490" transform="translate(17.043 28.188)">
        <path id="Path_7724" data-name="Path 7724" d="M8.558,585.312A8.385,8.385,0,1,1,8.6,568.544a8.385,8.385,0,0,1-.042,16.768Z" transform="translate(-0.124 -568.541)" fill="#fff" fill-rule="evenodd"/>
        <path id="Path_7725" data-name="Path 7725" d="M73.5,576.87a8.367,8.367,0,1,1-8.5-8.326A8.558,8.558,0,0,1,73.5,576.87Z" transform="translate(-8.543 -568.541)" fill="#fff" fill-rule="evenodd"/>
        <path id="Path_7726" data-name="Path 7726" d="M45.194,576.942a8.372,8.372,0,1,1-8.431-8.4A8.544,8.544,0,0,1,45.194,576.942Z" transform="translate(-4.334 -568.541)" fill="#fff" fill-rule="evenodd"/>
      </g>
    </g>
  </g>
</svg>
