<svg xmlns="http://www.w3.org/2000/svg" xmlns:xlink="http://www.w3.org/1999/xlink" width="100" height="100" viewBox="0 0 100 100">
  <defs>
    <clipPath id="clip-Knowledge_graph">
      <rect width="100" height="100"/>
    </clipPath>
  </defs>
  <g id="Knowledge_graph" data-name="Knowledge graph" clip-path="url(#clip-Knowledge_graph)">
    <path id="Path_7937" data-name="Path 7937" d="M96.011,14.113c0,3.434.035,6.869-.011,10.3-.038,2.859-.9,3.725-3.74,3.738q-9.453.046-18.907,0c-2.773-.012-3.655-.906-3.758-3.773-.072-1.993-.03-3.992-.039-5.987,0-1-.288-1.693-1.5-1.683-2.552.023-5.106-.095-7.656-.015-3.5.107-5.093,1.765-5.126,5.232-.037,3.832.087,7.669-.049,11.5-.077,2.165.8,2.9,2.821,2.683a14.1,14.1,0,0,1,2.155,0c2.578.122,3.652,1.118,3.679,3.7q.088,8.744,0,17.487c-.026,2.711-1.1,3.685-3.832,3.791-4.8.183-4.8.183-4.791,4.977,0,3.034-.023,6.069.009,9.1.037,3.6,1.639,5.245,5.278,5.327,2.392.053,4.792-.158,7.18-.064,1.426.057,1.851-.515,1.836-1.794-.021-2-.052-3.995.034-5.987.116-2.708,1.021-3.6,3.666-3.616q9.573-.048,19.147,0c2.7.013,3.562.851,3.579,3.619q.066,10.54-.005,21.081c-.018,2.594-.9,3.416-3.51,3.428q-9.572.043-19.146,0c-2.8-.013-3.7-.945-3.756-3.758-.038-1.916-.046-3.832-.006-5.748.03-1.407-.532-2.031-1.99-1.989-2.47.071-4.945-.011-7.415.039a9.8,9.8,0,0,1-10.341-9.9q-.1-6.226,0-12.456c.029-1.661-.61-2.339-2.247-2.25-1.115.061-2.235.015-3.353-.019-3.215-.1-4.245-1.208-4.162-4.461.14-5.493.14-5.488-5.225-5.444-2.073.017-4.147.058-6.218-.016-1.522-.053-2.2.514-2.149,2.083.059,1.993.01,3.992-.045,5.986-.06,2.158-1.108,3.334-3.352,3.583a47.843,47.843,0,0,1-5.015-.151q-7.175.06-14.351,0C.985,62.628.054,61.762.036,59.084Q-.036,48.546.039,38c.019-2.55.969-3.36,3.511-3.5,6.056-.327,12.115.217,18.178-.133,3.719-.215,4.665.9,4.74,4.633.033,1.676.058,3.355.006,5.029-.043,1.433.571,2.009,2,1.981,3.426-.063,6.854-.072,10.281-.053,1.043.006,1.435-.429,1.4-1.434q-.072-2.272-.053-4.547c.018-2.727.985-3.714,3.743-3.875.24-.014.479-.009.719-.014,5.884-.123,5.183.822,5.239-5.238.03-3.193-.051-6.389.021-9.581A9.7,9.7,0,0,1,59.8,11.511c2.552-.02,5.106-.09,7.655,0,1.58.056,2.165-.572,2.121-2.094-.055-1.915-.043-3.833.006-5.748C69.652.99,70.565.039,73.208.026Q82.9-.026,92.6.027c2.459.012,3.34.854,3.389,3.307.071,3.592.019,7.185.019,10.779ZM75.02,14.08c0,2.311.037,4.624-.013,6.934-.029,1.371.335,1.976,1.911,1.93,3.9-.116,7.8-.062,11.7.039,1.506.039,1.959-.57,1.946-1.967-.041-4.623-.057-9.247.005-13.87.022-1.63-.719-2.017-2.193-1.99q-5.728.106-11.458.007c-1.494-.029-1.962.569-1.918,1.982C75.071,9.455,75.019,11.768,75.02,14.08ZM21.033,48.805c0-2.391-.045-4.782.016-7.172.037-1.423-.5-2.005-1.956-1.983-3.819.058-7.64.075-11.457-.011-1.709-.039-2.209.672-2.185,2.275q.1,6.694,0,13.389c-.027,1.651.568,2.267,2.23,2.23,3.818-.084,7.639-.076,11.456-.012,1.5.024,1.946-.64,1.911-2.02C20.99,53.27,21.033,51.038,21.033,48.805ZM90.551,83.1c0-2.391-.032-4.78.014-7.168.023-1.185-.346-1.738-1.642-1.712-3.9.077-7.8.141-11.69.039-1.679-.044-2.268.487-2.243,2.155.071,4.538.06,9.079,0,13.617-.019,1.425.464,2.008,1.93,1.986,3.816-.061,7.635-.082,11.448.012,1.694.041,2.263-.616,2.2-2.241C90.486,87.563,90.551,85.331,90.551,83.1ZM58.441,48.628c0-1.754-.03-3.507.009-5.26.03-1.325-.567-1.853-1.877-1.835-2.948.04-5.9.051-8.846-.012-1.538-.033-2.158.6-2.137,2.124.044,3.266.054,6.535-.009,9.8-.032,1.666.685,2.256,2.3,2.212,2.868-.078,5.74-.075,8.607-.015,1.458.03,2.01-.586,1.966-1.994C58.4,51.976,58.445,50.3,58.441,48.628Z" transform="translate(98.673 1.5) rotate(90)" fill="#fff" stroke="#3a3a3a" stroke-width="0.6" fill-rule="evenodd"/>
  </g>
</svg>
