<svg xmlns="http://www.w3.org/2000/svg" xmlns:xlink="http://www.w3.org/1999/xlink" width="100" height="100" viewBox="0 0 100 100">
  <defs>
    <clipPath id="clip-Publish">
      <rect width="100" height="100"/>
    </clipPath>
  </defs>
  <g id="Publish" clip-path="url(#clip-Publish)">
    <g id="share_3_" data-name="share (3)" transform="translate(0)">
      <path id="Path_7774" data-name="Path 7774" d="M88.545,168.672H11.462A11.467,11.467,0,0,1,0,157.214V96.8A11.467,11.467,0,0,1,11.462,85.34H26.045a3.125,3.125,0,1,1,0,6.25H11.462A5.215,5.215,0,0,0,6.254,96.8v60.417a5.215,5.215,0,0,0,5.208,5.208H88.545a5.216,5.216,0,0,0,5.209-5.208V121.8a3.125,3.125,0,0,1,6.25,0v35.417A11.468,11.468,0,0,1,88.545,168.672Zm0,0" transform="translate(-0.004 -68.672)" fill="#fff"/>
      <path id="Path_7775" data-name="Path 7775" d="M131.124,66.614a2.752,2.752,0,0,1-.687-.084A3.082,3.082,0,0,1,128,63.543v-6.25a40.672,40.672,0,0,1,40.625-40.625h1.041V3.126A3.123,3.123,0,0,1,175.044.959l27.083,28.125a3.12,3.12,0,0,1,0,4.333L175.044,61.542a3.123,3.123,0,0,1-5.375-2.167V45.834h-4.95a34.181,34.181,0,0,0-30.746,19A3.218,3.218,0,0,1,131.124,66.614Zm37.5-43.7A34.432,34.432,0,0,0,134.516,53a40.4,40.4,0,0,1,30.2-13.416h8.075a3.126,3.126,0,0,1,3.125,3.125v8.916l19.62-20.375L175.92,10.876v8.917a3.126,3.126,0,0,1-3.125,3.125Zm0,0" transform="translate(-103.004 0)" fill="#fff"/>
    </g>
  </g>
</svg>
