<svg xmlns="http://www.w3.org/2000/svg" xmlns:xlink="http://www.w3.org/1999/xlink" width="100" height="100" viewBox="0 0 100 100">
  <defs>
    <clipPath id="clip-Response_library">
      <rect width="100" height="100"/>
    </clipPath>
  </defs>
  <g id="Response_library" data-name="Response library" clip-path="url(#clip-Response_library)">
    <g id="Group_7466" data-name="Group 7466" transform="translate(16976.855 -7804)">
      <g id="Group_6495" data-name="Group 6495" transform="translate(-16976.855 7804)">
        <g id="Group_7055" data-name="Group 7055" transform="translate(0 0)">
          <path id="Path_7723" data-name="Path 7723" d="M65.452,535.531H-6.892c-7.376,1.814-11.668,6.105-13.48,13.481V594.5c1.236,5.014,3.68,8.623,7.469,11.031a16.283,16.283,0,0,0,8.841,2.545q4.714.014,9.427.011l9.055,0,4.013,0c6.172,0,8.055,1.911,8.063,8.169L26.5,620c.008,3.575.017,7.26-.014,10.895-.024,2.7.816,3.3,1.753,3.734a2.442,2.442,0,0,0,1.012.259,4.9,4.9,0,0,0,2.8-1.666l2.9-2.894c6.191-6.172,12.592-12.552,18.89-18.937a10.471,10.471,0,0,1,7.842-3.351c10.657-.043,17.283-6.727,17.295-17.447,0-3.858-.027-7.852-.054-11.377-.063-8.171-.126-16.592.146-24.9C79.4,544.473,74.437,537.641,65.452,535.531Zm7.991,55.55c-.015,7.009-4.038,11.363-10.5,11.363-.454,0-.924-.023-1.4-.067-4.839-.452-8.11.935-11.369,4.859a92.79,92.79,0,0,1-7.06,7.346c-1.053,1.017-2.057,1.988-3.038,2.978l-2.086,2.1-5.957-2.689.007-5.2c.005-1.782.01-3.562-.01-5.339-.034-3.028-.916-3.908-3.933-3.921q-6.339-.03-12.678-.025l-12.555.005q-3.067,0-6.133-.005c-7.385-.009-11.629-4.206-11.642-11.511-.024-13.358-.024-26.338,0-38.581.014-7.134,4.324-11.4,11.527-11.4q32.7-.026,65.4,0c7.142.007,11.413,4.308,11.426,11.5C73.47,566.164,73.469,578.783,73.443,591.081Z" transform="translate(20.372 -535.531)" fill="#fff"/>
          <g id="quote" transform="translate(36.651 23.753)">
            <path id="Path_7727" data-name="Path 7727" d="M233.882,29.235v12.4h8.267a8.277,8.277,0,0,1-8.267,8.267v4.134a12.415,12.415,0,0,0,12.4-12.4v-12.4Z" transform="translate(-217.347 -29.235)" fill="#fff"/>
            <path id="Path_7728" data-name="Path 7728" d="M0,41.636H8.267A8.277,8.277,0,0,1,0,49.9v4.134a12.414,12.414,0,0,0,12.4-12.4v-12.4H0Z" transform="translate(0 -29.235)" fill="#fff"/>
          </g>
        </g>
      </g>
    </g>
  </g>
</svg>
