<svg xmlns="http://www.w3.org/2000/svg" xmlns:xlink="http://www.w3.org/1999/xlink" width="100" height="73" viewBox="0 0 100 73">
  <defs>
    <clipPath id="clip-Training_phrase">
      <rect width="100" height="73"/>
    </clipPath>
  </defs>
  <g id="Training_phrase" data-name="Training phrase" clip-path="url(#clip-Training_phrase)">
    <g id="Group_7467" data-name="Group 7467" transform="translate(4845 -5482.117)">
      <path id="Path_7885" data-name="Path 7885" d="M97.225,281.541h-39.7a1.45,1.45,0,1,0,0,2.9h39.7a1.45,1.45,0,0,0,0-2.9Z" transform="translate(-4889.231 5227.8)" fill="#fff"/>
      <path id="Path_7886" data-name="Path 7886" d="M97.225,328.871h-39.7a1.45,1.45,0,1,0,0,2.9h39.7a1.45,1.45,0,0,0,0-2.9Z" transform="translate(-4889.231 5189.622)" fill="#fff"/>
      <path id="Path_7887" data-name="Path 7887" d="M77.374,376.2H57.522a1.45,1.45,0,1,0,0,2.9H77.374a1.45,1.45,0,1,0,0-2.9Z" transform="translate(-4889.231 5151.444)" fill="#fff"/>
      <path id="Path_7888" data-name="Path 7888" d="M294.542,186.88h-39.7a1.45,1.45,0,1,0,0,2.9h39.7a1.45,1.45,0,1,0,0-2.9Z" transform="translate(-5048.392 5304.155)" fill="#fff"/>
      <path id="Path_7889" data-name="Path 7889" d="M377.351,234.21H357.5a1.45,1.45,0,0,0,0,2.9h19.852a1.45,1.45,0,1,0,0-2.9Z" transform="translate(-5131.202 5265.978)" fill="#fff"/>
      <path id="Path_7892" data-name="Path 7892" d="M54.938,225.624H9.376a9.371,9.371,0,0,0-9.361,9.361v23.533a9.371,9.371,0,0,0,9.361,9.361H9.7L7.828,278.285a2.306,2.306,0,0,0,3.857,2.081l12.833-12.182a1.108,1.108,0,0,1,.767-.306H54.937a9.371,9.371,0,0,0,9.361-9.361V234.985A9.371,9.371,0,0,0,54.938,225.624Zm6.46,32.893a6.467,6.467,0,0,1-6.46,6.46H25.286a4,4,0,0,0-2.764,1.1L11,277.013l1.627-9.036a2.549,2.549,0,0,0-2.508-3H9.376a6.467,6.467,0,0,1-6.46-6.46V234.985a6.467,6.467,0,0,1,6.46-6.46H54.938a6.467,6.467,0,0,1,6.46,6.46Z" transform="translate(-4844.015 5272.904)" fill="#fff"/>
      <path id="Path_7894" data-name="Path 7894" d="M264.045,140.754H223.587a8.484,8.484,0,0,0-8.474,8.474v2.608a1.45,1.45,0,1,0,2.9,0v-2.608a5.58,5.58,0,0,1,5.574-5.574h40.458a5.58,5.58,0,0,1,5.574,5.574v20.623a5.58,5.58,0,0,1-5.574,5.574h-.665a2.425,2.425,0,0,0-2.387,2.855l1.357,7.535-9.867-9.367a3.711,3.711,0,0,0-2.566-1.024h-6.786a1.45,1.45,0,0,0,0,2.9h6.786a.823.823,0,0,1,.569.227l11.4,10.818a2.21,2.21,0,0,0,3.7-1.995l-1.63-9.05h.1a8.484,8.484,0,0,0,8.474-8.474V149.228A8.484,8.484,0,0,0,264.045,140.754Z" transform="translate(-5017.519 5341.363)" fill="#fff"/>
    </g>
  </g>
</svg>
